REM DIRINDEX 1\2,1\3,1\4,1\5
REM DIRNAME folder01,folder02,folder03,folder04,folder05
TITLE ""
FILE "1Q_t_1029-1038.mp3" MP3
  TRACK 01 AUDIO
    TITLE "3:cjc004_3991"
    INDEX 01 00:00:00
  TRACK 02 AUDIO
    TITLE "0:"
    INDEX 01 00:00:62
  TRACK 03 AUDIO
    TITLE "4:cjc004_3992"
    INDEX 01 00:01:17
  TRACK 04 AUDIO
    TITLE "0:"
    INDEX 01 00:02:30
  TRACK 05 AUDIO
    TITLE "5:cjc004_3993"
    INDEX 01 00:02:55
  TRACK 06 AUDIO
    TITLE "0:"
    INDEX 01 00:07:13
  TRACK 07 AUDIO
    TITLE "3:cjc004_3994"
    INDEX 01 00:07:72
  TRACK 08 AUDIO
    TITLE "0:"
    INDEX 01 00:09:02
  TRACK 09 AUDIO
    TITLE "4:cjc004_3995"
    INDEX 01 00:09:32
  TRACK 10 AUDIO
    TITLE "0:"
    INDEX 01 00:10:53
  TRACK 11 AUDIO
    TITLE "5:cjc004_3996"
    INDEX 01 00:11:07
  TRACK 12 AUDIO
    TITLE "0:"
    INDEX 01 00:17:12
  TRACK 13 AUDIO
    TITLE "3:cjc004_3997"
    INDEX 01 00:17:65
  TRACK 14 AUDIO
    TITLE "0:"
    INDEX 01 00:19:18
  TRACK 15 AUDIO
    TITLE "4:cjc004_3998"
    INDEX 01 00:19:44
  TRACK 16 AUDIO
    TITLE "0:"
    INDEX 01 00:20:73
  TRACK 17 AUDIO
    TITLE "5:cjc004_3999"
    INDEX 01 00:21:29
  TRACK 18 AUDIO
    TITLE "0:"
    INDEX 01 00:25:68
  TRACK 19 AUDIO
    TITLE "3:cjc004_4000"
    INDEX 01 00:26:46
  TRACK 20 AUDIO
    TITLE "0:"
    INDEX 01 00:27:51
  TRACK 21 AUDIO
    TITLE "4:cjc004_4001"
    INDEX 01 00:28:02
  TRACK 22 AUDIO
    TITLE "0:"
    INDEX 01 00:29:03
  TRACK 23 AUDIO
    TITLE "5:cjc004_4002"
    INDEX 01 00:29:29
  TRACK 24 AUDIO
    TITLE "0:"
    INDEX 01 00:33:42
  TRACK 25 AUDIO
    TITLE "3:cjc004_4003"
    INDEX 01 00:34:20
  TRACK 26 AUDIO
    TITLE "0:"
    INDEX 01 00:35:39
  TRACK 27 AUDIO
    TITLE "4:cjc004_4004"
    INDEX 01 00:35:68
  TRACK 28 AUDIO
    TITLE "0:"
    INDEX 01 00:37:01
  TRACK 29 AUDIO
    TITLE "5:cjc004_4005"
    INDEX 01 00:37:22
  TRACK 30 AUDIO
    TITLE "0:"
    INDEX 01 00:42:00
  TRACK 31 AUDIO
    TITLE "3:cjc004_4006"
    INDEX 01 00:42:57
  TRACK 32 AUDIO
    TITLE "0:"
    INDEX 01 00:43:58
  TRACK 33 AUDIO
    TITLE "4:cjc004_4007"
    INDEX 01 00:44:12
  TRACK 34 AUDIO
    TITLE "0:"
    INDEX 01 00:45:18
  TRACK 35 AUDIO
    TITLE "5:cjc004_4008"
    INDEX 01 00:45:41
  TRACK 36 AUDIO
    TITLE "0:"
    INDEX 01 00:50:17
  TRACK 37 AUDIO
    TITLE "3:cjc004_4009"
    INDEX 01 00:50:66
  TRACK 38 AUDIO
    TITLE "0:"
    INDEX 01 00:52:10
  TRACK 39 AUDIO
    TITLE "4:cjc004_4010"
    INDEX 01 00:52:41
  TRACK 40 AUDIO
    TITLE "0:"
    INDEX 01 00:53:58
  TRACK 41 AUDIO
    TITLE "5:cjc004_4011"
    INDEX 01 00:54:05
  TRACK 42 AUDIO
    TITLE "0:"
    INDEX 01 00:59:04
  TRACK 43 AUDIO
    TITLE "3:cjc004_4012"
    INDEX 01 00:59:61
  TRACK 44 AUDIO
    TITLE "0:"
    INDEX 01 01:01:07
  TRACK 45 AUDIO
    TITLE "4:cjc004_4013"
    INDEX 01 01:01:38
  TRACK 46 AUDIO
    TITLE "0:"
    INDEX 01 01:02:26
  TRACK 47 AUDIO
    TITLE "5:cjc004_4014"
    INDEX 01 01:02:52
  TRACK 48 AUDIO
    TITLE "0:"
    INDEX 01 01:06:63
  TRACK 49 AUDIO
    TITLE "3:cjc004_4015"
    INDEX 01 01:07:43
  TRACK 50 AUDIO
    TITLE "0:"
    INDEX 01 01:08:44
  TRACK 51 AUDIO
    TITLE "4:cjc004_4016"
    INDEX 01 01:09:01
  TRACK 52 AUDIO
    TITLE "0:"
    INDEX 01 01:10:08
  TRACK 53 AUDIO
    TITLE "5:cjc004_4017"
    INDEX 01 01:10:35
  TRACK 54 AUDIO
    TITLE "0:"
    INDEX 01 01:14:41
  TRACK 55 AUDIO
    TITLE "3:cjc004_4018"
    INDEX 01 01:15:27
  TRACK 56 AUDIO
    TITLE "0:"
    INDEX 01 01:16:38
  TRACK 57 AUDIO
    TITLE "4:cjc004_4019"
    INDEX 01 01:16:69
  TRACK 58 AUDIO
    TITLE "0:"
    INDEX 01 01:18:02
  TRACK 59 AUDIO
    TITLE "5:cjc004_4020"
    INDEX 01 01:18:27
  TRACK 60 AUDIO
    TITLE "0:"
    INDEX 01 01:23:07
